<?xml version="1.0" standalone="no"?>
<!DOCTYPE svg PUBLIC "-//W3C//DTD SVG 20010904//EN"
 "http://www.w3.org/TR/2001/REC-SVG-20010904/DTD/svg10.dtd">
<svg version="1.0" xmlns="http://www.w3.org/2000/svg"
 width="300.000000pt" height="300.000000pt" viewBox="0 0 300.000000 300.000000"
 preserveAspectRatio="xMidYMid meet">
<metadata>
Created by potrace 1.10, written by Peter Selinger 2001-2011
</metadata>
<g transform="translate(0.000000,300.000000) scale(0.100000,-0.100000)"
fill="#000000" stroke="none">
<path d="M2873 2303 c26 -2 67 -2 90 0 23 2 2 3 -48 3 -49 0 -68 -1 -42 -3z"/>
<path d="M928 2254 c-67 -21 -116 -81 -167 -207 -24 -56 -49 -116 -57 -134
l-14 -31 -91 -4 c-86 -3 -92 -5 -116 -32 -42 -49 -18 -122 56 -173 18 -12 37
-23 43 -25 7 -3 1 -32 -17 -84 l-29 -79 -4 -343 c-4 -431 -13 -412 179 -413
77 0 105 3 129 17 37 23 42 36 42 135 l0 79 609 0 c335 0 612 1 617 3 4 1 9
-40 12 -91 5 -87 7 -95 33 -118 26 -22 37 -24 133 -24 186 0 188 2 192 323 4
278 -7 413 -43 516 -14 41 -24 75 -22 76 1 1 18 10 38 19 47 22 81 69 86 120
4 35 1 45 -22 66 -24 23 -35 25 -117 26 l-90 2 -23 63 c-67 187 -113 262 -188
302 -42 22 -44 22 -582 24 -449 2 -548 0 -587 -13z m67 -44 c3 -5 1 -10 -6
-10 -29 0 -79 -54 -118 -129 -23 -45 -39 -81 -36 -81 3 0 -2 -11 -11 -25 -9
-14 -14 -28 -11 -31 3 -3 -5 -27 -18 -52 -39 -81 -76 -200 -69 -227 3 -13 22
-35 43 -47 l36 -23 685 0 c587 0 690 2 718 15 17 8 32 19 32 23 0 5 4 6 9 3 5
-3 14 7 21 23 12 31 7 79 -13 116 -6 11 -12 25 -13 30 -1 6 -17 44 -36 85 -20
41 -39 86 -43 100 -29 96 -103 207 -155 233 -8 4 2 5 24 1 69 -10 109 -46 150
-134 20 -43 36 -83 36 -88 0 -18 51 -113 71 -133 15 -15 35 -19 87 -20 37 -1
78 -4 91 -8 51 -14 32 -82 -35 -130 -25 -17 -47 -38 -51 -47 -7 -18 15 -124
25 -124 4 0 8 -10 9 -23 0 -12 6 -60 12 -107 15 -118 13 -535 -3 -580 -15 -42
-32 -48 -148 -49 -81 -1 -89 1 -102 22 -9 12 -19 56 -22 97 -11 120 51 109
-656 110 -706 0 -641 11 -652 -113 -9 -107 -9 -108 -23 -103 -7 3 -15 1 -18
-4 -7 -11 -174 -14 -200 -4 -9 4 -21 18 -26 31 -5 13 -9 158 -9 321 -1 273 1
303 21 377 38 141 38 140 -16 188 -109 96 -92 147 49 147 55 0 65 3 88 28 29
31 58 84 58 107 0 8 5 15 11 15 5 0 8 4 5 8 -9 14 68 159 96 181 46 36 100 51
113 31z m1016 -48 c42 -25 63 -62 124 -212 26 -63 58 -139 72 -168 14 -29 27
-71 30 -92 9 -68 42 -65 -744 -64 -740 1 -733 0 -733 45 0 20 125 341 158 404
11 22 34 53 51 69 41 39 70 41 587 40 411 0 422 -1 455 -22z"/>
<path d="M1013 1420 c-34 -14 -43 -42 -43 -128 0 -64 4 -85 19 -103 l19 -24
484 -3 c583 -3 538 -14 538 129 0 82 -2 92 -25 114 l-24 25 -473 -1 c-260 0
-483 -4 -495 -9z m979 -125 l0 -90 -491 -3 -491 -2 0 95 0 95 491 -2 491 -3 0
-90z"/>
<path d="M689 1392 c-32 -19 -67 -69 -72 -102 -8 -49 31 -139 60 -140 6 0 13
-5 15 -12 2 -6 29 -13 59 -15 45 -4 60 -1 89 19 92 62 91 197 -2 252 -33 20
-115 19 -149 -2z m129 -32 c98 -60 60 -200 -54 -200 -34 0 -51 6 -76 29 -28
25 -33 36 -33 75 0 65 43 108 115 115 8 0 30 -8 48 -19z"/>
<path d="M2181 1403 c-43 -17 -91 -91 -91 -139 0 -106 130 -180 219 -126 42
25 81 83 81 119 -1 38 -35 112 -57 120 -10 4 -24 13 -31 20 -13 13 -94 17
-121 6z m105 -39 c69 -33 84 -111 33 -169 -27 -31 -37 -35 -79 -35 -39 0 -54
5 -79 29 -25 23 -31 37 -31 70 0 50 23 89 65 107 40 17 50 17 91 -2z"/>
</g>
</svg>
